<svg width="300" height="153" viewBox="0 0 300 153" fill="none" xmlns="http://www.w3.org/2000/svg">
<path d="M278 152.667C275.192 152.683 272.409 152.145 269.81 151.083C267.211 150.021 264.847 148.457 262.853 146.48L165.147 48.56C163.163 46.5604 160.804 44.9733 158.204 43.8903C155.605 42.8072 152.816 42.2496 150 42.2496C147.184 42.2496 144.395 42.8072 141.796 43.8903C139.196 44.9733 136.837 46.5604 134.853 48.56L37.1466 146.48C33.1295 150.497 27.6811 152.754 22 152.754C16.3189 152.754 10.8704 150.497 6.8533 146.48C2.83616 142.463 0.579346 137.014 0.579346 131.333C0.579346 128.52 1.13341 125.735 2.2099 123.136C3.28639 120.537 4.86421 118.176 6.8533 116.187L104.773 18.48C116.932 6.79853 133.139 0.274658 150 0.274658C166.861 0.274658 183.068 6.79853 195.227 18.48L293.147 116.187C295.146 118.17 296.733 120.529 297.816 123.129C298.899 125.729 299.457 128.517 299.457 131.333C299.457 134.15 298.899 136.938 297.816 139.538C296.733 142.137 295.146 144.497 293.147 146.48C291.153 148.457 288.789 150.021 286.19 151.083C283.591 152.145 280.808 152.683 278 152.667Z" fill="#2E2A22"/>
</svg>
