<svg width="512" height="384" viewBox="0 0 512 384" fill="none" xmlns="http://www.w3.org/2000/svg">
<path d="M117.333 298.667C135.007 298.667 149.333 284.34 149.333 266.667C149.333 248.994 135.007 234.667 117.333 234.667C99.6604 234.667 85.3335 248.994 85.3335 266.667C85.3335 284.34 99.6604 298.667 117.333 298.667Z" fill="#E8AF27"/>
<path d="M405.333 0H106.667C78.3873 0.0338743 51.2759 11.2828 31.2794 31.2794C11.2828 51.2759 0.0338743 78.3873 0 106.667L0 277.333C0.0338743 305.613 11.2828 332.724 31.2794 352.721C51.2759 372.717 78.3873 383.966 106.667 384H405.333C433.613 383.966 460.724 372.717 480.721 352.721C500.717 332.724 511.966 305.613 512 277.333V106.667C511.966 78.3873 500.717 51.2759 480.721 31.2794C460.724 11.2828 433.613 0.0338743 405.333 0ZM106.667 42.6667H405.333C422.307 42.6667 438.586 49.4095 450.588 61.4118C462.591 73.4142 469.333 89.6928 469.333 106.667H42.6667C42.6667 89.6928 49.4095 73.4142 61.4118 61.4118C73.4142 49.4095 89.6928 42.6667 106.667 42.6667ZM405.333 341.333H106.667C89.6928 341.333 73.4142 334.591 61.4118 322.588C49.4095 310.586 42.6667 294.307 42.6667 277.333V149.333H469.333V277.333C469.333 294.307 462.591 310.586 450.588 322.588C438.586 334.591 422.307 341.333 405.333 341.333Z" fill="#E8AF27"/>
</svg>
