<svg width="512" height="512" viewBox="0 0 512 512" fill="none" xmlns="http://www.w3.org/2000/svg">
<path d="M349.485 86.766C323.916 65.096 297.579 42.616 270.924 16.046L255.731 0.959961L240.816 16.067C192.831 64.18 170.16 138.054 160.316 182.374C152.781 170.695 147.19 157.872 143.76 144.404L134.747 109.609L108.539 134.241C62.6189 177.345 31.9999 220.11 31.9999 288.592C31.1179 390.226 99.4879 479.431 197.859 504.993C212.264 508.497 226.968 510.637 241.774 511.385C246.638 511.737 260.567 512.088 262.954 511.939C383.639 508.309 479.562 409.374 479.461 288.634C479.461 197.14 419.225 146.001 349.485 86.766ZM259.858 469.048C257.627 469.241 255.599 469.261 253.342 469.24C213.498 468.022 181.802 435.421 181.705 395.559C181.705 368.557 196.186 355.098 228.959 327.202C237.221 320.175 246.208 312.53 255.663 303.777C263.947 311.294 271.996 318.109 279.428 324.433C312.35 352.372 329.535 368.237 329.535 395.495C329.461 434.599 298.901 466.859 259.858 469.048ZM366.759 431.334L366.333 431.632C370.155 419.988 372.11 407.813 372.125 395.558C372.125 347.325 340.48 320.45 307.005 292.021C295.144 281.97 282.899 271.578 270.676 259.354L255.599 244.298L240.543 259.354C226.744 273.132 213.243 284.631 201.339 294.768C167.948 323.176 139.093 347.729 139.093 395.558C139.138 408.339 141.297 421.025 145.482 433.101C100.548 398.597 74.3219 345.075 74.5909 288.422C74.2409 251.054 88.7039 215.067 114.817 188.335C119.315 197.46 124.647 206.15 130.746 214.294C139.849 226.578 155.382 232.277 170.27 228.796C185.405 225.426 197.172 213.518 200.36 198.344C209.277 149.4 228.562 102.931 256.92 62.055C279.386 83.35 301.64 102.196 321.721 119.254C388.417 175.899 436.715 216.828 436.715 288.55C436.821 344.427 410.966 397.183 366.739 431.334H366.759Z" fill="#E8AF27"/>
</svg>
