<svg width="366" height="305" viewBox="0 0 366 305" fill="none" xmlns="http://www.w3.org/2000/svg">
<path d="M312.625 198.25C283.193 198.25 259.25 222.193 259.25 251.625C259.25 281.057 283.193 305 312.625 305C342.057 305 366 281.057 366 251.625C366 222.193 342.057 198.25 312.625 198.25ZM350.75 167.75C359.183 167.75 366 160.918 366 152.5C366 144.082 359.183 137.25 350.75 137.25H312.625C308.538 137.25 304.481 137.524 300.471 137.997L274.912 72.2392C279.319 74.725 284.336 76.25 289.765 76.25C298.183 76.25 305.015 69.418 305.015 61V30.5C305.015 22.082 298.183 15.25 289.765 15.25C276.147 15.25 264.755 24.2322 260.836 36.5542C251.091 14.3197 229.558 0 205.097 0H198.265C189.832 0 183.015 6.832 183.015 15.25C183.015 23.668 189.832 30.5 198.265 30.5H205.097C217.557 30.5 228.979 38.3233 233.523 49.9438L270.84 145.897C256.627 151.982 243.649 161.086 232.959 172.966L207.934 202.657C202.124 209.55 193.629 213.5 184.616 213.5H181.124L147.666 129.854C138.363 106.552 116.129 91.5 91.0272 91.5H61C27.3585 91.5 0 118.858 0 152.5V183C0 206.378 13.3742 226.493 32.7265 236.726C31.3387 241.53 30.5 246.501 30.5 251.625C30.5 281.057 54.4425 305 83.875 305C113.307 305 137.25 281.057 137.25 251.625C137.25 249.048 137.006 246.516 136.64 244H184.601C202.627 244 219.63 236.1 231.251 222.314L255.941 192.989C270.383 176.946 291.046 167.75 312.625 167.75H350.75ZM61 213.5C44.1792 213.5 30.5 199.821 30.5 183V152.5C30.5 135.679 44.1792 122 61 122H91.0272C103.563 122 114.695 129.518 119.331 141.169L148.261 213.5H61Z" fill="#E8AF27"/>
</svg>
