<svg width="428" height="512" viewBox="0 0 428 512" fill="none" xmlns="http://www.w3.org/2000/svg">
<path d="M354.395 45.6533L220.741 1.08801C216.365 -0.369506 211.635 -0.369506 207.259 1.08801L73.6052 45.6533C52.3552 52.7121 33.8701 66.2882 20.7763 84.4525C7.68248 102.617 0.645988 124.446 0.666549 146.837V256C0.666549 417.344 196.933 506.453 205.339 510.165C208.065 511.377 211.016 512.003 214 512.003C216.984 512.003 219.934 511.377 222.661 510.165C231.067 506.453 427.333 417.344 427.333 256V146.837C427.354 124.446 420.317 102.617 407.223 84.4525C394.13 66.2882 375.645 52.7121 354.395 45.6533ZM384.667 256C384.667 372.373 249.861 448.704 214 466.965C178.096 448.768 43.3332 372.672 43.3332 256V146.837C43.3345 133.403 47.5631 120.31 55.4199 109.413C63.2768 98.5162 74.3635 90.3679 87.1092 86.1227L214 43.8187L340.891 86.1227C353.636 90.3679 364.723 98.5162 372.58 109.413C380.437 120.31 384.665 133.403 384.667 146.837V256Z" fill="#E8AF27"/>
<path d="M284.4 177.067L195.056 266.667L147.184 216.747C145.263 214.646 142.94 212.951 140.354 211.762C137.768 210.573 134.97 209.913 132.125 209.822C129.279 209.731 126.445 210.21 123.788 211.232C121.131 212.253 118.705 213.796 116.653 215.769C114.601 217.742 112.965 220.106 111.842 222.722C110.718 225.337 110.129 228.151 110.109 230.997C110.089 233.844 110.64 236.666 111.727 239.296C112.815 241.927 114.418 244.313 116.442 246.315L165.637 297.515C169.306 301.477 173.74 304.655 178.672 306.855C183.604 309.055 188.931 310.232 194.33 310.315H195.034C200.326 310.332 205.569 309.298 210.458 307.273C215.347 305.248 219.785 302.272 223.514 298.517L314.65 207.381C316.641 205.395 318.221 203.036 319.3 200.439C320.378 197.843 320.935 195.059 320.938 192.247C320.941 189.435 320.39 186.65 319.317 184.05C318.244 181.451 316.669 179.089 314.682 177.099C312.696 175.108 310.337 173.528 307.741 172.45C305.144 171.371 302.36 170.814 299.548 170.811C296.736 170.808 293.951 171.359 291.352 172.432C288.753 173.506 286.39 175.08 284.4 177.067Z" fill="#E8AF27"/>
</svg>
