<svg width="414" height="375" viewBox="0 0 414 375" fill="none" xmlns="http://www.w3.org/2000/svg">
<path d="M327.75 68.1818H291.922C286.126 35.7443 261.682 8.96591 228.545 0.545454C219.42 -1.78977 209.933 3.69886 207.535 12.8011C205.154 21.9205 210.726 31.2102 219.955 33.5455C242.794 39.358 258.75 59.7273 258.75 83.0795V272.727H69C49.9732 272.727 34.5 257.437 34.5 238.636V170.455H77.625C87.1642 170.455 94.875 162.818 94.875 153.409C94.875 144 87.1642 136.364 77.625 136.364H34.5C15.4732 136.364 0 151.653 0 170.455V238.636C0 270.682 22.494 297.631 52.6988 304.892C52.0778 308.318 51.75 311.812 51.75 315.341C51.75 348.239 78.8325 375 112.125 375C145.417 375 172.5 348.239 172.5 315.341C172.5 312.46 172.276 309.631 171.862 306.818H242.138C241.724 309.631 241.5 312.46 241.5 315.341C241.5 348.239 268.583 375 301.875 375C335.167 375 362.25 348.239 362.25 315.341C362.25 311.812 361.922 308.318 361.301 304.892C391.506 297.631 414 270.682 414 238.636V153.409C414 106.415 375.308 68.1818 327.75 68.1818ZM379.5 153.409V170.455H293.25V102.273H327.75C356.282 102.273 379.5 125.216 379.5 153.409ZM138 315.341C138 329.437 126.391 340.909 112.125 340.909C97.8592 340.909 86.25 329.437 86.25 315.341C86.25 312.119 86.8883 309.273 87.8198 306.818H136.447C137.379 309.273 138.017 312.119 138.017 315.341H138ZM301.875 340.909C287.609 340.909 276 329.437 276 315.341C276 312.119 276.638 309.273 277.57 306.818H326.197C327.129 309.273 327.767 312.119 327.767 315.341C327.767 329.437 316.141 340.909 301.875 340.909ZM345 272.727H293.25V204.545H379.5V238.636C379.5 257.437 364.027 272.727 345 272.727ZM0 17.0455C0 7.63636 7.71075 0 17.25 0H157.907C167.446 0 175.157 7.63636 175.157 17.0455C175.157 26.4545 167.446 34.0909 157.907 34.0909H17.25C7.71075 34.0909 0 26.4545 0 17.0455ZM0 85.2273C0 75.8182 7.71075 68.1818 17.25 68.1818H123.406C132.946 68.1818 140.657 75.8182 140.657 85.2273C140.657 94.6364 132.946 102.273 123.406 102.273H17.25C7.71075 102.273 0 94.6364 0 85.2273Z" fill="#E8AF27"/>
</svg>
