<svg width="384" height="512" viewBox="0 0 384 512" fill="none" xmlns="http://www.w3.org/2000/svg">
<path d="M192 256C217.316 256 242.064 248.493 263.113 234.428C284.162 220.363 300.569 200.372 310.257 176.984C319.945 153.595 322.479 127.858 317.541 103.029C312.602 78.1989 300.411 55.3915 282.51 37.4904C264.609 19.5893 241.801 7.39845 216.972 2.45954C192.142 -2.47937 166.405 0.0554606 143.017 9.74348C119.628 19.4315 99.6367 35.8376 85.5719 56.8871C71.5071 77.9366 64 102.684 64 128C64.0339 161.937 77.5304 194.475 101.528 218.472C125.525 242.47 158.063 255.966 192 256ZM192 42.6667C208.877 42.6667 225.376 47.6714 239.409 57.048C253.442 66.4245 264.379 79.7518 270.838 95.3444C277.296 110.937 278.986 128.095 275.694 144.648C272.401 161.201 264.274 176.406 252.34 188.34C240.406 200.274 225.201 208.401 208.648 211.694C192.095 214.986 174.937 213.296 159.344 206.838C143.752 200.379 130.424 189.442 121.048 175.409C111.671 161.376 106.667 144.877 106.667 128C106.667 105.368 115.657 83.6634 131.66 67.6603C147.663 51.6572 169.368 42.6667 192 42.6667Z" fill="#2E2A22"/>
<path d="M192 298.667C141.096 298.723 92.2926 318.97 56.2979 354.965C20.3031 390.959 0.0564662 439.763 0 490.667C0 496.325 2.24761 501.751 6.24839 505.752C10.2492 509.752 15.6754 512 21.3333 512C26.9913 512 32.4175 509.752 36.4183 505.752C40.4191 501.751 42.6667 496.325 42.6667 490.667C42.6667 451.061 58.4 413.078 86.4054 385.072C114.411 357.067 152.394 341.333 192 341.333C231.606 341.333 269.589 357.067 297.595 385.072C325.6 413.078 341.333 451.061 341.333 490.667C341.333 496.325 343.581 501.751 347.582 505.752C351.582 509.752 357.009 512 362.667 512C368.325 512 373.751 509.752 377.752 505.752C381.752 501.751 384 496.325 384 490.667C383.944 439.763 363.697 390.959 327.702 354.965C291.707 318.97 242.904 298.723 192 298.667Z" fill="#2E2A22"/>
</svg>
